HIERARCHY
ROOT pelvis
{
  OFFSET 0 100 0
  CHANNELS 6 Xposition Yposition Zposition Zrotation Xrotation Yrotation
  JOINT pelvis_right_femur
  {
    OFFSET -10.78128 -3.44521 -0.5502486
    CHANNELS 3 Zrotation Xrotation Yrotation
    JOINT right_femur_tibia
    {
      OFFSET -0.8047443 -44.0398 -0.1307829
      CHANNELS 3 Zrotation Xrotation Yrotation
      JOINT right_tibia_foot
      {
        OFFSET 3.006224 -47.83518 -5
        CHANNELS 3 Zrotation Xrotation Yrotation
        End Site
        {
          OFFSET 0 -5 15
        }
      }
    }
  }
  JOINT pelvis_left_femur
  {
    OFFSET 10.78128 -3.44521 -0.5502486
    CHANNELS 3 Zrotation Xrotation Yrotation
    JOINT left_femur_tibia
    {
      OFFSET 0.8047443 -44.0398 -0.1307829
      CHANNELS 3 Zrotation Xrotation Yrotation
      JOINT left_tibia_foot
      {
        OFFSET -4.370144 -48.10324 -4.275266
        CHANNELS 3 Zrotation Xrotation Yrotation
        End Site
        {
          OFFSET 0 -5 15
        }
      }
    }
  }
  JOINT pelvis_spine1
  {
    OFFSET 0 6.468898 -3.129235
    CHANNELS 3 Zrotation Xrotation Yrotation
    JOINT spine1
    {
      OFFSET 0 23.15396 4.99043
      CHANNELS 3 Zrotation Xrotation Yrotation
      JOINT spine2
      {
        OFFSET 0 20.79997 -5.064912
        CHANNELS 3 Zrotation Xrotation Yrotation
        JOINT neck
        {
          OFFSET 0 14.38658 9.616178
          CHANNELS 3 Zrotation Xrotation Yrotation
          End Site
          {
            OFFSET 0 20 0
          }
        }
      }
      JOINT right_manubrium
      {
        OFFSET -5.722621 16.35077 3.967754
        CHANNELS 3 Zrotation Xrotation Yrotation
        JOINT right_clavicle
        {
          OFFSET -13.16364 1.694482 -4.693211
          CHANNELS 3 Zrotation Xrotation Yrotation
          JOINT right_humerus
          {
            OFFSET -28.5034 -0.3100689 -2.792744
            CHANNELS 3 Zrotation Xrotation Yrotation
            JOINT right_radius
            {
              OFFSET -25.15693 0.02248979 -1.271978
              CHANNELS 3 Zrotation Xrotation Yrotation
              End Site
              {
                OFFSET -15 0 0
              }
            }
          }
        }
      }
      JOINT left_manubrium
      {
        OFFSET 5.722621 16.35077 3.967754
        CHANNELS 3 Zrotation Xrotation Yrotation
        JOINT left_clavicle
        {
          OFFSET 13.16364 1.694482 -4.693211
          CHANNELS 3 Zrotation Xrotation Yrotation
          JOINT left_humerus
          {
            OFFSET 29.39168 -1.063119 -2.237045
            CHANNELS 3 Zrotation Xrotation Yrotation
            JOINT left_radius
            {
              OFFSET 24.59957 -0.9528479 0.9047498
              CHANNELS 3 Zrotation Xrotation Yrotation
              End Site
              {
                OFFSET 15 -0 -0
              }
            }
          }
        }
      }
    }
  }
}
MOTION
Frames: 23
Frame Time: 0.0416666666667
0 103.5113 0 2.700223 -0.5155603 0.1096232 3.29182 -15.95299 11.51663 -0 36.98403 -0 -2.213345 -18.03806 -2.926318 -8.898629 10.04984 -22.78807 -0 4.552834 -0 22.14875 -8.807921 30.02108 -3.052202 -2.757087 4.563751 3.480562 10.32313 -8.021126 1.68899 21.14653 6.230522 2.366566 -26.57922 10.06889 5.626543 -19.88284 11.36615 86.42158 37.42737 -18.90533 -0 0 14.5074 -6.130669 8.425819 4.252635 5.432561 -20.21872 -1.818097 -90.95551 21.99215 19.27772 0 0 -18.50784 14.50123 13.17171 -2.794479
0.4791811 103.3211 1.659367 2.151583 0.2394343 0.1547926 4.519813 -18.38864 12.17207 -0 37.07446 -0 -2.702575 -17.34381 -2.661646 -8.792669 9.973726 -22.50215 -0 5.249665 -0 23.35863 -8.539529 30.62085 -3.289719 -2.803358 4.553087 3.689542 10.3094 -8.114068 1.586354 21.07359 6.514872 2.312505 -27.04659 10.42078 5.456846 -20.26893 11.45651 86.67467 38.18756 -19.04226 -0 0 14.32712 -5.594815 8.165184 4.400832 5.361184 -20.21407 -1.904955 -90.31912 21.90401 18.84113 0 0 -20.54329 15.28044 12.1005 -3.516256
0.854622 102.8697 3.792897 1.791301 0.1743123 0.2477714 4.070519 -20.34032 7.48482 -0 30.47978 -0 -4.578681 -13.47584 -1.601746 -8.232229 11.13839 -21.20718 -0 5.71627 -0 17.70946 -13.08287 27.60502 -3.079617 -2.604841 4.394723 3.607439 10.24973 -8.021904 1.597187 21.15991 6.440407 2.35885 -26.70539 10.22149 5.555166 -19.73652 11.46965 86.57885 37.79434 -19.02123 -0 0 13.85227 -6.094885 8.390375 4.632041 5.304696 -20.09838 -1.946129 -90.27702 21.91675 18.67347 0 0 -19.71946 14.66586 12.32641 -2.954573
1.166363 102.3328 6.212419 1.339818 0.5520376 0.3481339 4.256431 -22.51517 5.743769 -0 27.30423 -0 -5.626228 -11.38353 -1.216366 -7.850388 11.72812 -20.40052 -0 6.100602 -0 14.70497 -15.57017 26.05369 -2.975097 -2.488164 4.306287 3.569532 10.21674 -7.972573 1.592306 21.20401 6.423653 2.386593 -26.53216 10.12796 5.594402 -19.45738 11.48402 86.55041 37.62989 -19.02001 -0 0 13.55795 -6.359661 8.500347 4.785381 5.270406 -20.03847 -1.980247 -90.18906 21.90714 18.53198 0 0 -19.42823 14.36525 12.35516 -2.677949
1.450231 101.6821 9.013121 0.9117674 0.8533184 0.46757 4.602022 -25.1128 4.257257 -0 23.96826 -0 -6.390708 -8.76293 -0.6900267 -7.504623 12.28228 -19.2171 -0 7.018301 -0 13.08164 -17.08986 24.5899 -2.890806 -2.397911 4.21824 3.570765 10.18295 -7.946785 1.580681 21.23364 6.419334 2.393696 -26.43182 10.06711 5.630655 -19.22566 11.51377 86.53037 37.47456 -19.05877 -0 0 13.28115 -6.536489 8.578636 4.945101 5.210836 -19.96791 -2.018546 -90.11105 21.96931 18.4238 0 0 -19.26937 14.04497 12.32718 -2.353291
1.717102 100.9518 12.23882 0.4839776 1.259872 0.6182782 5.069154 -27.86314 3.189573 -0 20.79219 -0 -6.952456 -6.182176 -0.208239 -7.205977 12.81806 -17.95784 -0 8.298169 -0 12.05403 -18.13343 23.27092 -2.820744 -2.316617 4.136002 3.581167 10.15272 -7.929577 1.565004 21.25624 6.424547 2.39775 -26.35489 10.01965 5.657037 -19.0252 11.54563 86.5253 37.35028 -19.10833 -0 0 13.01767 -6.68329 8.640902 5.099243 5.152224 -19.90553 -2.059953 -90.01348 22.02543 18.30629 0 0 -19.20346 13.76498 12.25756 -2.065244
1.975506 100.1628 15.96948 0.08693468 1.567888 0.815461 5.514041 -30.40224 2.151897 -0 17.64383 -0 -7.456028 -3.437085 0.3364181 -6.919068 13.40918 -16.55288 -0 10.20988 -0 11.28793 -18.66954 21.8433 -2.753961 -2.240676 4.055579 3.597016 10.12475 -7.918293 1.547872 21.27505 6.429227 2.398747 -26.28678 9.972441 5.682161 -18.835 11.57939 86.52355 37.22085 -19.16743 -0 0 12.76371 -6.820647 8.697529 5.251961 5.090418 -19.84559 -2.103389 -89.91933 22.09103 18.19605 0 0 -19.15491 13.47548 12.18074 -1.763097
2.228079 99.37853 20.28484 -0.3149611 1.696025 1.065844 5.944427 -32.43232 1.150019 -0 14.86698 -0 -8.006557 -0.6411835 0.9073173 -6.588101 14.05211 -15.05359 -0 13.03645 -0 10.4187 -18.65213 20.20053 -2.682148 -2.160355 3.977608 3.603535 10.10007 -7.904212 1.531846 21.29584 6.42663 2.403499 -26.1984 9.910461 5.708882 -18.6367 11.60981 86.51856 37.07523 -19.21979 -0 0 12.51609 -6.984472 8.760656 5.403605 5.032351 -19.79081 -2.14723 -89.83018 22.14609 18.08625 0 0 -19.06532 13.16898 12.12124 -1.447912
2.472729 98.70195 25.24641 -0.7428226 1.508413 1.352565 6.381762 -33.5088 0.2150596 -0 12.8715 -0 -8.693714 2.01286 1.440108 -6.152825 14.65496 -13.485 -0 17.15716 -0 9.206889 -17.88763 18.26779 -2.598522 -2.070484 3.904015 3.590203 10.07977 -7.881067 1.519523 21.32308 6.408928 2.415485 -26.06911 9.821047 5.742198 -18.41775 11.63334 86.49994 36.89613 -19.25157 -0 0 12.28027 -7.200115 8.839129 5.55465 4.98039 -19.74093 -2.188777 -89.75936 22.18733 17.98451 0 0 -18.87515 12.82385 12.10682 -1.10146
2.702057 98.2875 30.85573 -1.219974 0.9503561 1.621096 6.919722 -33.1827 -0.4605486 -0 12.07328 -0 -9.547138 4.115575 1.777543 -5.560959 14.96576 -11.90785 -0 22.9245 -0 7.540365 -16.17752 16.09649 -2.496191 -1.963552 3.839199 3.542332 10.06555 -7.839409 1.51317 21.36226 6.370039 2.44069 -25.87321 9.690901 5.785579 -18.16589 11.64548 86.45761 36.67227 -19.24326 -0 0 12.06166 -7.499391 8.942536 5.707256 4.93958 -19.69764 -2.224994 -89.71617 22.20495 17.89534 0 0 -18.52989 12.42436 12.16142 -0.7119202
2.904741 98.31569 37.00612 -1.73614 0.08127076 1.772198 7.62333 -31.09629 -0.6656682 -0 12.59163 -0 -10.52372 5.125917 1.714477 -4.808269 14.52629 -10.39619 -0 30.50498 -0 5.54043 -13.43916 13.89109 -2.368574 -1.832484 3.792102 3.442789 10.05974 -7.767249 1.513942 21.41834 6.307356 2.487046 -25.58548 9.508486 5.840134 -17.87388 11.64202 86.38226 36.39662 -19.17294 -0 0 11.86947 -7.915489 9.07866 5.866018 4.91659 -19.66488 -2.252505 -89.71236 22.19138 17.83024 0 0 -17.98676 11.95436 12.30275 -0.262919
3.071669 98.92731 43.45702 -2.215457 -0.8842692 1.688879 8.394306 -27.21525 -0.3455637 -0 13.95499 -0 -11.51868 4.601339 1.128017 -3.983545 12.72939 -9.037913 -0 39.6064 -0 3.552202 -9.931165 11.96326 -2.209635 -1.670682 3.77941 3.269886 10.06555 -7.64791 1.520654 21.49512 6.22564 2.566542 -25.18149 9.265945 5.901151 -17.54354 11.61931 86.26778 36.07254 -19.01469 -0 0 11.71733 -8.485528 9.252059 6.039882 4.922208 -19.65153 -2.267933 -89.76082 22.13851 17.81032 0 0 -17.22758 11.40358 12.53446 0.2623783
3.206014 100.125 49.88394 -2.481817 -1.68741 1.304237 8.897444 -21.96692 0.2384656 -0 15.05975 -0 -12.40629 2.598127 0.1833661 -3.271654 9.085722 -7.916608 -0 49.24759 -0 1.983632 -6.361357 10.57554 -2.015949 -1.475667 3.829159 2.998993 10.0867 -7.460097 1.52782 21.59335 6.141613 2.694964 -24.64519 8.963709 5.954183 -17.19558 11.57566 86.11234 35.71963 -18.73873 -0 0 11.62887 -9.245824 9.459348 6.244318 4.971249 -19.67259 -2.268257 -89.87856 22.04173 17.87625 0 0 -16.27698 10.7726 12.83601 0.88059
3.324203 101.7182 56.00872 -2.303862 -2.251937 0.6672493 8.736015 -16.0559 0.6463244 -0 14.76099 -0 -13.03147 -0.1498431 -0.6568492 -2.833065 3.61879 -7.085908 -0 57.77592 -0 1.042124 -3.628903 9.824201 -1.790232 -1.254533 3.981953 2.607635 10.12567 -7.180455 1.523409 21.70878 6.087309 2.888731 -23.97953 8.615647 5.971692 -16.88089 11.51325 85.91663 35.37976 -18.31056 -0 0 11.64476 -10.22365 9.683222 6.50373 5.079752 -19.74711 -2.251247 -90.08815 21.90397 18.09707 0 0 -15.21883 10.08124 13.15263 1.601866
3.435627 103.3776 61.7074 -1.589296 -2.776977 -0.0643894 7.806642 -10.02285 0.6519294 -0 12.80225 -0 -13.23253 -2.699734 -1.006174 -2.592059 -2.986254 -6.496115 -0 63.2374 -0 0.6411177 -2.244587 9.702836 -1.545345 -1.030759 4.284895 2.086682 10.17941 -6.791611 1.487528 21.83063 6.107476 3.156556 -23.21806 8.251769 5.914302 -16.68663 11.43956 85.67709 35.11641 -17.69233 -0 0 11.82849 -11.42355 9.88774 6.851834 5.257094 -19.89 -2.215784 -90.41641 21.74037 18.57173 0 0 -14.19718 9.373529 13.3945 2.421198
3.528227 104.7553 66.99634 -0.5846042 -3.483975 -0.7128614 6.509338 -4.153849 0.4342431 -0 10.05939 -0 -13.01745 -4.683272 -0.9138475 -2.158945 -9.715187 -5.926253 -0 63.93639 -0 0.6089815 -2.000496 10.19686 -1.305102 -0.8471491 4.774269 1.454649 10.23335 -6.295272 1.39425 21.94194 6.246691 3.488194 -22.42688 7.913236 5.740812 -16.7238 11.36637 85.37673 35.00108 -16.84991 -0 0 12.26077 -12.81429 10.02141 7.326736 5.495176 -20.09864 -2.16213 -90.88477 21.57684 19.40913 0 0 -13.38671 8.712913 13.45519 3.309779
3.596893 105.5778 71.96052 0.2179493 -4.314918 -1.194686 5.51912 1.151615 0.2767467 -0 7.756371 -0 -12.61142 -6.451719 -0.6912296 -1.078354 -15.67948 -5.064606 -0 59.06547 -0 0.9088355 -2.259514 11.20376 -1.098515 -0.7580639 5.450803 0.7663699 10.25867 -5.724233 1.218471 22.02304 6.528167 3.847821 -21.68831 7.637999 5.426699 -17.08894 11.30494 84.98192 35.08691 -15.76799 -0 0 13.01342 -14.32463 10.03256 7.958689 5.761326 -20.34201 -2.092538 -91.49091 21.43874 20.68124 0 0 -12.9344 8.163668 13.24923 4.213335
3.67955 105.703 76.73082 0.4319196 -4.971793 -1.559247 5.286606 5.326576 0.2661472 -0 6.651971 -0 -12.19656 -8.480061 -0.5325462 0.7656808 -20.27472 -3.725174 -0 49.29176 -0 1.56183 -2.461532 12.42563 -0.9492759 -0.8084213 6.262065 0.1053375 10.21951 -5.141872 0.9475507 22.05857 6.935191 4.180411 -21.07039 7.443903 4.982568 -17.81235 11.26031 84.45386 35.38045 -14.46756 -0 0 14.10659 -15.85378 9.89259 8.753386 6.00275 -20.56298 -2.012219 -92.19194 21.33496 22.36565 0 0 -12.89609 7.765625 12.75253 5.061433
3.84743 105.1621 81.49158 0.02433479 -5.200669 -1.902534 5.738805 8.085645 0.3844417 -0 6.917088 -0 -11.72036 -10.85201 -0.4648512 2.965707 -23.15428 -2.032862 -0 36.83885 -0 2.442479 -2.362969 13.48316 -0.8677558 -1.007637 7.108342 -0.4430691 10.09077 -4.621682 0.5938228 22.04611 7.408634 4.431505 -20.60127 7.321679 4.459663 -18.82357 11.22964 83.77367 35.82724 -13.01406 -0 0 15.47279 -17.29293 9.613608 9.678015 6.164791 -20.69732 -1.929214 -92.90646 21.25196 24.3147 0 0 -13.20059 7.517531 12.02359 5.785508
4.168803 104.1523 86.45812 -0.7176834 -4.996108 -2.276832 6.371166 9.756888 0.6261778 -0 8.349381 -0 -11.0141 -13.25168 -0.462659 4.778611 -24.28629 -0.4580811 -0 24.72016 -0 3.208791 -2.017242 14.16958 -0.8503217 -1.315154 7.874755 -0.8258823 9.876313 -4.214978 0.2000508 22.00092 7.865962 4.570689 -20.26605 7.244479 3.935381 -19.96035 11.20636 82.96857 36.32317 -11.51092 -0 0 16.95485 -18.54881 9.248363 10.6579 6.216188 -20.70192 -1.851963 -93.54268 21.16492 26.28135 0 0 -13.66635 7.38129 11.19237 6.337603
4.682781 102.9572 91.8219 -1.39379 -4.588245 -2.697112 6.583328 11.14047 0.9043488 -0 10.53208 -0 -10.04125 -15.22204 -0.4688528 5.553716 -24.04363 0.3659254 -0 15.4786 -0 3.413549 -1.65442 14.58588 -0.8834721 -1.650916 8.472185 -1.04259 9.613516 -3.929698 -0.169947 21.95139 8.23297 4.604511 -20.02626 7.186715 3.485253 -21.02205 11.18588 82.1211 36.75125 -10.08327 -0 0 18.34631 -19.56057 8.871542 11.58942 6.165777 -20.57638 -1.786431 -94.03579 21.05566 27.99672 0 0 -14.07257 7.305469 10.41801 6.700931
5.383678 101.8385 97.6939 -1.705953 -4.287586 -3.181127 6.007369 13.03713 1.01356 -0 13.00671 -0 -9.021836 -16.36411 -0.3830109 5.087243 -23.07982 -0.04750187 -0 10.21617 -0 2.74334 -1.53048 15.04887 -0.9483339 -1.927843 8.86164 -1.135929 9.358852 -3.73755 -0.4541128 21.92627 8.46904 4.569556 -19.84505 7.136827 3.158249 -21.83894 11.16776 81.34793 37.02593 -8.855462 -0 0 19.45596 -20.30524 8.552879 12.3685 6.056329 -20.36262 -1.735754 -94.3665 20.92248 29.25718 0 0 -14.24947 7.251559 9.833481 6.887988
6.216057 100.972 104.0784 -1.563884 -4.32525 -3.742233 4.643457 15.80219 0.8038637 -0 15.54289 -0 -8.33574 -16.36436 -0.1064238 3.620439 -21.98095 -1.82247 -0 8.526461 -0 1.246371 -1.802323 15.85153 -1.024719 -2.085734 9.050376 -1.161561 9.163896 -3.60137 -0.6145292 21.94244 8.571308 4.510617 -19.70145 7.096043 2.969234 -22.31867 11.15394 80.75647 37.11782 -7.925633 -0 0 20.16225 -20.7914 8.337099 12.92138 5.939231 -20.12223 -1.701898 -94.55018 20.77779 29.97172 0 0 -14.13305 7.205358 9.506911 6.928936
